<svg width="179" height="49" viewBox="0 0 179 49" fill="none" xmlns="http://www.w3.org/2000/svg">
<path d="M64.7399 26.392C64.0679 28.996 62.7239 30.06 60.0919 30.06C56.5079 30.06 54.9679 28.016 54.9679 23.2C54.9679 18.384 56.5079 16.34 60.0919 16.34C62.8359 16.34 64.1799 17.404 64.7399 20.008H69.3319C68.5479 14.996 65.8039 12.84 60.0919 12.84C53.1199 12.84 50.1239 15.948 50.1239 23.2C50.1239 30.452 53.1199 33.56 60.0919 33.56C65.3839 33.56 68.1559 31.404 69.3319 26.392H64.7399ZM81.5854 12.84C74.5574 12.84 71.5614 15.948 71.5614 23.2C71.5614 30.452 74.5574 33.56 81.5854 33.56C88.6134 33.56 91.6094 30.452 91.6094 23.2C91.6094 15.948 88.6134 12.84 81.5854 12.84ZM81.5854 16.34C85.2254 16.34 86.7934 18.384 86.7934 23.2C86.7934 28.016 85.2254 30.06 81.5854 30.06C77.9454 30.06 76.4054 28.016 76.4054 23.2C76.4054 18.384 77.9454 16.34 81.5854 16.34ZM97.0797 13.4H92.4597L97.7517 33H105.788L111.08 13.4H106.46L101.784 31.376L97.1077 13.4H97.0797ZM117.228 33V19H113.084V33H117.228ZM115.156 12.784C113.476 12.784 112.748 13.428 112.748 14.968C112.748 16.508 113.476 17.152 115.156 17.152C116.836 17.152 117.564 16.508 117.564 14.968C117.564 13.456 116.836 12.784 115.156 12.784ZM138.633 23.2C138.633 16.34 135.721 13.4 128.889 13.4H121.217V33H128.889C135.721 33 138.633 30.06 138.633 23.2ZM128.665 16.648C132.277 16.648 133.817 18.608 133.817 23.2C133.817 27.792 132.277 29.752 128.665 29.752H125.837V16.648H128.665ZM149.838 27.064V24.04H140.598V27.064H149.838Z" fill="#34B3B1"/>
<path d="M151.508 16.424H154.868V33H159.012V13.4H151.508V16.424ZM177.882 22.92C177.882 15.892 175.698 12.84 169.986 12.84C164.638 12.84 162.37 14.94 162.37 19.84C162.37 24.74 164.302 26.84 168.866 26.84C173.206 26.84 173.682 22.892 173.738 21.688C173.738 27.96 172.59 30.62 170.014 30.62C168.278 30.62 167.354 29.836 166.878 27.96H162.958C163.742 31.88 165.842 33.56 170.014 33.56C175.53 33.56 177.91 30.368 177.91 22.92H177.882ZM170.014 23.648C167.578 23.648 166.542 22.528 166.542 19.84C166.542 17.152 167.578 16.032 170.014 16.032C172.422 16.032 173.458 17.18 173.458 19.84C173.458 22.528 172.422 23.648 170.014 23.648Z" fill="#FC7B3B"/>
<circle cx="33.8762" cy="31.7021" r="3.35218" transform="rotate(180 33.8762 31.7021)" fill="#34B3B1"/>
<circle cx="9.93212" cy="31.7021" r="3.35218" transform="rotate(180 9.93212 31.7021)" fill="#34B3B1"/>
<circle cx="21.8084" cy="38.598" r="3.35218" transform="rotate(180 21.8084 38.598)" fill="#34B3B1"/>
<ellipse cx="26.0226" cy="31.7021" rx="2.20286" ry="2.20286" transform="rotate(180 26.0226 31.7021)" fill="#34B3B1"/>
<ellipse cx="17.7858" cy="31.7021" rx="2.20286" ry="2.20286" transform="rotate(180 17.7858 31.7021)" fill="#34B3B1"/>
<circle cx="9.93214" cy="17.1441" r="3.35218" fill="#34B3B1"/>
<circle cx="33.8763" cy="17.1441" r="3.35218" fill="#34B3B1"/>
<circle cx="22" cy="10.2481" r="3.35218" fill="#34B3B1"/>
<ellipse cx="17.7858" cy="17.1441" rx="2.20286" ry="2.20286" fill="#34B3B1"/>
<circle cx="22" cy="24.2315" r="3.35218" transform="rotate(180 22 24.2315)" fill="#34B3B1"/>
<ellipse cx="13.9548" cy="24.2316" rx="2.20286" ry="2.20286" fill="#34B3B1"/>
<ellipse cx="30.0452" cy="24.2316" rx="2.20286" ry="2.20286" fill="#34B3B1"/>
<ellipse cx="26.0226" cy="17.1441" rx="2.20286" ry="2.20286" fill="#34B3B1"/>
<ellipse cx="40.9638" cy="12.9299" rx="2.20286" ry="2.20286" fill="#34B3B1"/>
<ellipse cx="40.9638" cy="35.9163" rx="2.20286" ry="2.20286" fill="#34B3B1"/>
<circle cx="39.4314" cy="24.2315" r="2.58597" fill="#34B3B1"/>
<circle cx="12.997" cy="40.7051" r="2.58597" fill="#34B3B1"/>
<circle cx="30.8115" cy="40.7051" r="2.58597" fill="#34B3B1"/>
<ellipse cx="21.8085" cy="46.6433" rx="2.20286" ry="2.20286" fill="#34B3B1"/>
<circle cx="30.8114" cy="8.14102" r="2.58597" transform="rotate(180 30.8114 8.14102)" fill="#34B3B1"/>
<circle cx="12.997" cy="8.14102" r="2.58597" transform="rotate(180 12.997 8.14102)" fill="#34B3B1"/>
<ellipse cx="22" cy="2.2029" rx="2.20286" ry="2.20286" transform="rotate(180 22 2.2029)" fill="#34B3B1"/>
<ellipse cx="3.03615" cy="35.9163" rx="2.20286" ry="2.20286" transform="rotate(180 3.03615 35.9163)" fill="#34B3B1"/>
<ellipse cx="3.03615" cy="12.9299" rx="2.20286" ry="2.20286" transform="rotate(180 3.03615 12.9299)" fill="#34B3B1"/>
<circle cx="4.56857" cy="24.6146" r="2.58597" transform="rotate(180 4.56857 24.6146)" fill="#34B3B1"/>
</svg>